<?xml version="1.0" standalone="no"?>
<!DOCTYPE svg PUBLIC "-//W3C//DTD SVG 20010904//EN"
 "http://www.w3.org/TR/2001/REC-SVG-20010904/DTD/svg10.dtd">
<svg version="1.0" xmlns="http://www.w3.org/2000/svg"
 width="738.000000pt" height="738.000000pt" viewBox="0 0 738.000000 738.000000"
 preserveAspectRatio="xMidYMid meet">
<metadata>
Created by potrace 1.14, written by Peter Selinger 2001-2017
</metadata>
<g transform="translate(0.000000,738.000000) scale(0.100000,-0.100000)"
fill="#000000" stroke="none">
<path d="M3495 7309 c-22 -33 -45 -68 -50 -78 -6 -10 -18 -25 -28 -35 -9 -10
-15 -22 -12 -27 4 -5 2 -9 -3 -9 -7 0 -153 -208 -172 -245 -6 -12 -194 -299
-221 -337 -10 -15 -19 -31 -19 -37 0 -5 -3 -11 -7 -13 -10 -4 -63 -82 -63 -91
0 -5 -5 -13 -11 -20 -42 -48 -450 -719 -661 -1087 -174 -303 -245 -434 -370
-680 -35 -69 -65 -127 -68 -130 -15 -13 -258 -526 -259 -545 -1 -3 -11 -26
-24 -53 -14 -26 -48 -105 -76 -177 -29 -71 -56 -140 -61 -152 -6 -13 -14 -33
-19 -45 -12 -29 -101 -291 -106 -315 -3 -10 -16 -56 -29 -103 -14 -47 -27 -96
-29 -110 -3 -14 -10 -43 -15 -65 -14 -52 -24 -102 -27 -141 -1 -17 -4 -35 -7
-40 -23 -44 -16 -440 11 -599 6 -33 13 -78 17 -100 3 -22 7 -42 9 -45 2 -3 6
-26 10 -50 4 -25 10 -47 13 -50 4 -3 8 -14 9 -25 3 -24 8 -45 16 -65 3 -8 20
-60 37 -115 18 -55 36 -104 41 -110 5 -5 9 -15 9 -23 0 -17 114 -253 149 -307
14 -22 26 -42 26 -45 0 -6 117 -182 126 -190 3 -3 18 -23 35 -45 89 -121 275
-316 382 -402 26 -21 49 -40 52 -43 33 -33 264 -190 280 -190 5 0 10 -3 10 -7
0 -5 10 -13 23 -19 12 -6 69 -35 127 -64 58 -29 119 -59 135 -66 17 -7 50 -21
75 -32 38 -16 79 -32 100 -37 3 -1 12 -4 20 -8 60 -24 271 -78 282 -71 4 3 8
0 8 -7 0 -7 2 -10 6 -7 3 3 22 2 42 -3 20 -5 60 -12 87 -15 28 -3 53 -8 56
-10 39 -23 575 -24 684 -1 11 3 40 8 65 11 225 31 480 112 720 229 69 34 127
64 130 68 3 4 17 13 30 18 26 11 61 32 70 41 3 3 36 25 73 49 38 24 85 57 105
73 20 15 44 34 53 41 87 66 282 254 354 341 22 27 48 58 59 70 10 11 32 41 49
66 17 25 37 51 44 58 34 35 249 416 253 450 1 4 10 27 21 51 10 24 24 62 31
85 7 22 16 44 21 47 5 3 9 10 8 15 0 5 7 32 15 60 8 28 16 60 19 70 2 11 12
53 23 94 11 41 22 94 25 117 4 22 9 52 11 65 37 160 42 511 11 668 -3 14 -8
39 -11 55 -26 143 -191 643 -216 653 -4 2 -8 12 -8 22 0 10 -4 22 -10 25 -5 3
-10 12 -10 20 0 27 -209 457 -331 680 -38 70 -69 131 -69 136 0 5 -4 9 -10 9
-5 0 -10 4 -10 9 0 6 -15 36 -34 68 -18 32 -45 78 -58 103 -115 206 -580 950
-600 958 -4 2 -8 8 -8 14 0 6 -16 33 -35 59 -19 27 -35 53 -35 58 0 5 -4 11
-8 13 -4 2 -50 66 -102 143 -51 77 -122 180 -157 228 -35 48 -63 92 -63 97 0
6 -4 10 -10 10 -5 0 -10 7 -10 15 0 8 -4 15 -8 15 -4 0 -16 13 -25 30 -10 16
-23 35 -30 43 -7 7 -16 20 -22 29 -34 56 -316 441 -329 450 -6 4 -8 8 -4 8 3
0 -2 10 -13 23 -16 18 -74 96 -206 276 -10 13 -60 78 -111 143 -51 66 -99 130
-108 144 -9 13 -21 24 -28 24 -6 -1 -29 -28 -51 -61z m1400 -3312 c-4 -23 -8
-53 -10 -67 -12 -97 -22 -167 -29 -210 -2 -14 -7 -46 -10 -71 -8 -58 -14 -91
-26 -154 -6 -27 -12 -66 -14 -85 -3 -19 -6 -36 -7 -37 -2 -4 -4 -11 -14 -68
-5 -27 -9 -52 -10 -55 -12 -48 -48 -201 -52 -219 -2 -14 -6 -28 -9 -33 -3 -5
-7 -20 -10 -34 -7 -38 -89 -282 -114 -339 -35 -81 -54 -120 -60 -125 -3 -3
-11 -16 -18 -30 -15 -30 -32 -58 -52 -81 -8 -9 -35 -41 -60 -71 -24 -29 -69
-74 -98 -98 -30 -25 -61 -52 -70 -60 -30 -26 -217 -131 -242 -135 -3 0 -35
-11 -71 -23 -36 -12 -101 -29 -145 -36 -91 -16 -318 -15 -379 2 -22 6 -51 13
-65 15 -34 6 -180 78 -180 89 0 4 8 16 18 26 10 10 43 50 74 88 31 39 63 77
70 85 7 8 36 41 63 74 28 33 55 65 60 71 6 6 26 30 45 54 19 23 42 50 50 60 8
10 31 38 51 61 32 38 102 122 248 298 43 52 64 77 97 113 13 15 24 32 24 38 0
5 4 10 8 10 4 0 41 41 82 91 41 51 90 108 108 128 18 20 38 45 44 56 11 21 -9
6 -72 -55 -15 -14 -57 -52 -95 -85 -37 -33 -86 -77 -109 -99 -22 -21 -70 -64
-105 -95 -35 -31 -79 -69 -96 -86 -18 -16 -72 -66 -121 -110 -48 -44 -102 -93
-120 -110 -18 -16 -65 -59 -105 -95 -40 -36 -80 -72 -89 -80 -9 -8 -53 -49
-100 -90 -46 -41 -91 -82 -100 -90 -80 -73 -101 -90 -112 -90 -39 1 -127 189
-144 308 -3 20 -8 51 -10 67 -6 40 -4 199 2 227 3 13 7 37 8 53 7 68 53 206
100 300 27 55 52 102 55 105 3 3 20 25 36 49 29 43 175 196 206 216 9 6 49 32
90 60 89 60 139 88 139 78 0 -5 4 -3 8 3 4 5 48 25 97 43 50 18 97 35 105 39
8 3 20 7 25 7 6 1 17 5 25 8 19 8 158 48 179 52 9 2 36 8 61 15 25 7 53 14 62
16 10 2 26 6 36 8 42 11 220 47 252 52 19 3 42 7 50 10 8 3 31 7 50 10 19 2
46 6 60 9 53 10 77 14 123 20 26 3 69 9 95 14 26 5 54 9 62 9 20 2 105 14 107
16 1 1 14 3 28 4 25 2 26 1 20 -41z m-1177 -1174 c-14 -16 -40 -46 -59 -67
-19 -21 -41 -46 -49 -55 -13 -13 -108 -119 -180 -202 -8 -9 -33 -37 -55 -61
-39 -42 -163 -182 -194 -217 -19 -22 -142 -160 -156 -175 -5 -6 -44 -49 -85
-96 -41 -47 -91 -103 -111 -125 -20 -22 -50 -56 -67 -75 -17 -19 -47 -53 -67
-75 -45 -49 -95 -120 -95 -134 0 -20 -36 10 -61 51 -13 21 -27 38 -30 38 -4 0
-10 8 -13 17 -5 12 13 36 66 86 40 38 118 113 174 166 116 111 462 442 539
516 29 28 116 111 194 185 78 74 168 161 199 192 57 57 98 82 50 31z m-1378
-2259 c0 -8 -19 -13 -24 -6 -3 5 1 9 9 9 8 0 15 -2 15 -3z"/>
</g>
</svg>
